<svg width="252" height="74" viewBox="0 0 252 74" fill="none" xmlns="http://www.w3.org/2000/svg">
<circle cx="37" cy="37" r="36.5" fill="#7649FF" stroke="#7649FF"/>
<path d="M35.5 64V40.7273H51.8636V45.8182H41.8182V49.8182H50.8636V54.9091H41.8182V64H35.5ZM53.9034 64V46.5455H59.9943V49.8636H60.1761C60.4943 48.6364 60.9981 47.7386 61.6875 47.1705C62.3845 46.6023 63.1989 46.3182 64.1307 46.3182C64.4034 46.3182 64.6723 46.3409 64.9375 46.3864C65.2102 46.4242 65.4716 46.4811 65.7216 46.5568V51.9091C65.411 51.803 65.0284 51.7235 64.5739 51.6705C64.1193 51.6174 63.7292 51.5909 63.4034 51.5909C62.7898 51.5909 62.2367 51.7311 61.7443 52.0114C61.2595 52.2841 60.8769 52.6705 60.5966 53.1705C60.3163 53.6629 60.1761 54.2424 60.1761 54.9091V64H53.9034Z" fill="white"/>
<path d="M75.142 64.3182C73.2784 64.3182 71.6723 63.9621 70.3239 63.25C68.983 62.5303 67.9489 61.5 67.2216 60.1591C66.5019 58.8106 66.142 57.197 66.142 55.3182C66.142 53.5152 66.5057 51.9394 67.233 50.5909C67.9602 49.2424 68.9867 48.1932 70.3125 47.4432C71.6383 46.6932 73.2027 46.3182 75.0057 46.3182C76.3239 46.3182 77.517 46.5227 78.5852 46.9318C79.6534 47.3409 80.5663 47.9356 81.3239 48.7159C82.0814 49.4886 82.6648 50.428 83.0739 51.5341C83.483 52.6402 83.6875 53.8864 83.6875 55.2727V56.7273H68.0966V53.2727H77.9148C77.9072 52.7727 77.7784 52.3333 77.5284 51.9545C77.286 51.5682 76.9564 51.2689 76.5398 51.0568C76.1307 50.8371 75.6648 50.7273 75.142 50.7273C74.6345 50.7273 74.1686 50.8371 73.7443 51.0568C73.3201 51.2689 72.9792 51.5644 72.7216 51.9432C72.4716 52.322 72.339 52.7652 72.3239 53.2727V57C72.3239 57.5606 72.4413 58.0606 72.6761 58.5C72.911 58.9394 73.2481 59.2841 73.6875 59.5341C74.1269 59.7841 74.6572 59.9091 75.2784 59.9091C75.7102 59.9091 76.1042 59.8485 76.4602 59.7273C76.8239 59.6061 77.1345 59.4318 77.392 59.2045C77.6496 58.9697 77.839 58.6894 77.9602 58.3636H83.6875C83.4905 59.5758 83.0246 60.6288 82.2898 61.5227C81.5549 62.4091 80.5814 63.0985 79.3693 63.5909C78.1648 64.0758 76.7557 64.3182 75.142 64.3182ZM94.6108 64.3182C92.7472 64.3182 91.1411 63.9621 89.7926 63.25C88.4517 62.5303 87.4176 61.5 86.6903 60.1591C85.9706 58.8106 85.6108 57.197 85.6108 55.3182C85.6108 53.5152 85.9744 51.9394 86.7017 50.5909C87.429 49.2424 88.4555 48.1932 89.7812 47.4432C91.107 46.6932 92.6714 46.3182 94.4744 46.3182C95.7926 46.3182 96.9858 46.5227 98.054 46.9318C99.1222 47.3409 100.035 47.9356 100.793 48.7159C101.55 49.4886 102.134 50.428 102.543 51.5341C102.952 52.6402 103.156 53.8864 103.156 55.2727V56.7273H87.5653V53.2727H97.3835C97.3759 52.7727 97.2472 52.3333 96.9972 51.9545C96.7547 51.5682 96.4252 51.2689 96.0085 51.0568C95.5994 50.8371 95.1335 50.7273 94.6108 50.7273C94.1032 50.7273 93.6373 50.8371 93.2131 51.0568C92.7888 51.2689 92.4479 51.5644 92.1903 51.9432C91.9403 52.322 91.8078 52.7652 91.7926 53.2727V57C91.7926 57.5606 91.91 58.0606 92.1449 58.5C92.3797 58.9394 92.7169 59.2841 93.1562 59.5341C93.5956 59.7841 94.1259 59.9091 94.7472 59.9091C95.179 59.9091 95.5729 59.8485 95.929 59.7273C96.2926 59.6061 96.6032 59.4318 96.8608 59.2045C97.1184 58.9697 97.3078 58.6894 97.429 58.3636H103.156C102.959 59.5758 102.493 60.6288 101.759 61.5227C101.024 62.4091 100.05 63.0985 98.8381 63.5909C97.6335 64.0758 96.2244 64.3182 94.6108 64.3182ZM111.989 40.7273V64H105.716V40.7273H111.989ZM120.048 64.2727C118.935 64.2727 117.95 64.0909 117.094 63.7273C116.245 63.3561 115.579 62.7955 115.094 62.0455C114.609 61.2955 114.366 60.3409 114.366 59.1818C114.366 58.2273 114.529 57.4129 114.855 56.7386C115.181 56.0568 115.635 55.5 116.219 55.0682C116.802 54.6364 117.48 54.3068 118.253 54.0795C119.033 53.8523 119.874 53.7045 120.776 53.6364C121.753 53.5606 122.537 53.4697 123.128 53.3636C123.726 53.25 124.158 53.0947 124.423 52.8977C124.688 52.6932 124.821 52.4242 124.821 52.0909V52.0455C124.821 51.5909 124.647 51.2424 124.298 51C123.95 50.7576 123.503 50.6364 122.957 50.6364C122.359 50.6364 121.87 50.7689 121.491 51.0341C121.12 51.2917 120.897 51.6894 120.821 52.2273H115.048C115.124 51.1667 115.461 50.1894 116.06 49.2955C116.666 48.3939 117.548 47.6742 118.707 47.1364C119.866 46.5909 121.313 46.3182 123.048 46.3182C124.298 46.3182 125.42 46.4659 126.412 46.7614C127.404 47.0492 128.249 47.4545 128.946 47.9773C129.643 48.4924 130.173 49.0985 130.537 49.7955C130.908 50.4848 131.094 51.2348 131.094 52.0455V64H125.23V61.5455H125.094C124.745 62.197 124.321 62.7235 123.821 63.125C123.329 63.5265 122.764 63.8182 122.128 64C121.499 64.1818 120.806 64.2727 120.048 64.2727ZM122.094 60.3182C122.571 60.3182 123.018 60.2197 123.435 60.0227C123.859 59.8258 124.204 59.5417 124.469 59.1705C124.734 58.7992 124.866 58.3485 124.866 57.8182V56.3636C124.7 56.4318 124.522 56.4962 124.332 56.5568C124.151 56.6174 123.954 56.6742 123.741 56.7273C123.537 56.7803 123.317 56.8295 123.082 56.875C122.855 56.9205 122.616 56.9621 122.366 57C121.882 57.0758 121.484 57.2008 121.173 57.375C120.87 57.5417 120.643 57.75 120.491 58C120.348 58.2424 120.276 58.5152 120.276 58.8182C120.276 59.303 120.446 59.6742 120.787 59.9318C121.128 60.1894 121.563 60.3182 122.094 60.3182ZM140.364 54.1818V64H134.091V46.5455H140.045V49.8636H140.227C140.606 48.7576 141.273 47.8902 142.227 47.2614C143.189 46.6326 144.311 46.3182 145.591 46.3182C146.826 46.3182 147.898 46.6023 148.807 47.1705C149.723 47.7311 150.432 48.5038 150.932 49.4886C151.439 50.4735 151.689 51.5985 151.682 52.8636V64H145.409V54.1818C145.417 53.3182 145.197 52.6402 144.75 52.1477C144.311 51.6553 143.697 51.4091 142.909 51.4091C142.394 51.4091 141.943 51.5227 141.557 51.75C141.178 51.9697 140.886 52.2879 140.682 52.7045C140.477 53.1136 140.371 53.6061 140.364 54.1818ZM163.188 64.3182C161.294 64.3182 159.672 63.9432 158.324 63.1932C156.975 62.4356 155.941 61.3826 155.222 60.0341C154.502 58.678 154.142 57.1061 154.142 55.3182C154.142 53.5303 154.502 51.9621 155.222 50.6136C155.941 49.2576 156.975 48.2045 158.324 47.4545C159.672 46.697 161.294 46.3182 163.188 46.3182C164.9 46.3182 166.381 46.6288 167.631 47.25C168.888 47.8636 169.862 48.7348 170.551 49.8636C171.241 50.9848 171.589 52.303 171.597 53.8182H165.778C165.695 52.9015 165.43 52.2045 164.983 51.7273C164.544 51.2424 163.975 51 163.278 51C162.733 51 162.256 51.1591 161.847 51.4773C161.438 51.7879 161.119 52.2614 160.892 52.8977C160.665 53.5265 160.551 54.3182 160.551 55.2727C160.551 56.2273 160.665 57.0227 160.892 57.6591C161.119 58.2879 161.438 58.7614 161.847 59.0795C162.256 59.3902 162.733 59.5455 163.278 59.5455C163.741 59.5455 164.15 59.4394 164.506 59.2273C164.862 59.0076 165.15 58.6894 165.369 58.2727C165.597 57.8485 165.733 57.3333 165.778 56.7273H171.597C171.574 58.2652 171.222 59.6061 170.54 60.75C169.858 61.8864 168.892 62.7652 167.642 63.3864C166.4 64.0076 164.915 64.3182 163.188 64.3182ZM182.548 64.3182C180.685 64.3182 179.079 63.9621 177.73 63.25C176.389 62.5303 175.355 61.5 174.628 60.1591C173.908 58.8106 173.548 57.197 173.548 55.3182C173.548 53.5152 173.912 51.9394 174.639 50.5909C175.366 49.2424 176.393 48.1932 177.719 47.4432C179.045 46.6932 180.609 46.3182 182.412 46.3182C183.73 46.3182 184.923 46.5227 185.991 46.9318C187.06 47.3409 187.973 47.9356 188.73 48.7159C189.488 49.4886 190.071 50.428 190.48 51.5341C190.889 52.6402 191.094 53.8864 191.094 55.2727V56.7273H175.503V53.2727H185.321C185.313 52.7727 185.185 52.3333 184.935 51.9545C184.692 51.5682 184.363 51.2689 183.946 51.0568C183.537 50.8371 183.071 50.7273 182.548 50.7273C182.041 50.7273 181.575 50.8371 181.151 51.0568C180.726 51.2689 180.385 51.5644 180.128 51.9432C179.878 52.322 179.745 52.7652 179.73 53.2727V57C179.73 57.5606 179.848 58.0606 180.082 58.5C180.317 58.9394 180.654 59.2841 181.094 59.5341C181.533 59.7841 182.063 59.9091 182.685 59.9091C183.116 59.9091 183.51 59.8485 183.866 59.7273C184.23 59.6061 184.541 59.4318 184.798 59.2045C185.056 58.9697 185.245 58.6894 185.366 58.3636H191.094C190.897 59.5758 190.431 60.6288 189.696 61.5227C188.961 62.4091 187.988 63.0985 186.776 63.5909C185.571 64.0758 184.162 64.3182 182.548 64.3182ZM197.062 64.3636C196.184 64.3636 195.43 64.0568 194.801 63.4432C194.18 62.822 193.873 62.0682 193.881 61.1818C193.873 60.3182 194.18 59.5795 194.801 58.9659C195.43 58.3523 196.184 58.0455 197.062 58.0455C197.896 58.0455 198.631 58.3523 199.267 58.9659C199.911 59.5795 200.237 60.3182 200.244 61.1818C200.237 61.7727 200.081 62.3106 199.778 62.7955C199.483 63.2727 199.097 63.6553 198.619 63.9432C198.142 64.2235 197.623 64.3636 197.062 64.3636Z" fill="black"/>
<path d="M203.562 40.7273H211.426L216.835 53.9091H217.108L222.517 40.7273H230.381V64H224.199V50.5455H224.017L218.835 63.8182H215.108L209.926 50.4545H209.744V64H203.562V40.7273ZM241.83 64.3182C239.966 64.3182 238.36 63.9621 237.011 63.25C235.67 62.5303 234.636 61.5 233.909 60.1591C233.189 58.8106 232.83 57.197 232.83 55.3182C232.83 53.5152 233.193 51.9394 233.92 50.5909C234.648 49.2424 235.674 48.1932 237 47.4432C238.326 46.6932 239.89 46.3182 241.693 46.3182C243.011 46.3182 244.205 46.5227 245.273 46.9318C246.341 47.3409 247.254 47.9356 248.011 48.7159C248.769 49.4886 249.352 50.428 249.761 51.5341C250.17 52.6402 250.375 53.8864 250.375 55.2727V56.7273H234.784V53.2727H244.602C244.595 52.7727 244.466 52.3333 244.216 51.9545C243.973 51.5682 243.644 51.2689 243.227 51.0568C242.818 50.8371 242.352 50.7273 241.83 50.7273C241.322 50.7273 240.856 50.8371 240.432 51.0568C240.008 51.2689 239.667 51.5644 239.409 51.9432C239.159 52.322 239.027 52.7652 239.011 53.2727V57C239.011 57.5606 239.129 58.0606 239.364 58.5C239.598 58.9394 239.936 59.2841 240.375 59.5341C240.814 59.7841 241.345 59.9091 241.966 59.9091C242.398 59.9091 242.792 59.8485 243.148 59.7273C243.511 59.6061 243.822 59.4318 244.08 59.2045C244.337 58.9697 244.527 58.6894 244.648 58.3636H250.375C250.178 59.5758 249.712 60.6288 248.977 61.5227C248.242 62.4091 247.269 63.0985 246.057 63.5909C244.852 64.0758 243.443 64.3182 241.83 64.3182Z" fill="#7649FF"/>
</svg>
